<?xml version="1.0" encoding="utf-8"?>
<!-- Generator: Adobe Illustrator 17.0.0, SVG Export Plug-In . SVG Version: 6.00 Build 0)  -->
<!DOCTYPE svg PUBLIC "-//W3C//DTD SVG 1.1//EN" "http://www.w3.org/Graphics/SVG/1.1/DTD/svg11.dtd">
<svg version="1.1" id="Livello_1" xmlns="http://www.w3.org/2000/svg" xmlns:xlink="http://www.w3.org/1999/xlink" x="0px" y="0px"
	 width="500px" height="240px" viewBox="0 0 500 240" enable-background="new 0 0 500 240" xml:space="preserve">
<g opacity="0.4">
	<path fill="#333333" d="M91.791,144.291c0.984,0,1.816,0.351,2.498,1.051s1.021,1.542,1.021,2.525c0,0.984-0.36,1.836-1.078,2.554
		c-2.876,2.46-6.073,4.352-9.592,5.676c-3.519,1.325-7.228,1.986-11.124,1.986c-8.779,0-16.271-3.102-22.476-9.308
		c-6.206-6.205-9.308-13.697-9.308-22.476c0-8.777,3.102-16.27,9.308-22.476c6.205-6.204,13.697-9.308,22.476-9.308
		c3.896,0,7.614,0.663,11.152,1.986c3.538,1.325,6.726,3.217,9.563,5.676c0.34,0.341,0.633,0.758,0.879,1.249
		c0.246,0.492,0.369,1.003,0.369,1.532c0,0.984-0.341,1.816-1.021,2.497c-0.681,0.681-1.514,1.021-2.498,1.021
		c-0.908,0-1.666-0.283-2.27-0.852c-4.617-4.048-10.009-6.072-16.175-6.072c-6.811,0-12.638,2.422-17.481,7.265
		c-4.806,4.806-7.208,10.633-7.208,17.48c0,6.849,2.402,12.676,7.208,17.48c4.843,4.844,10.67,7.265,17.481,7.265
		c2.988,0,5.874-0.548,8.655-1.646c2.781-1.097,5.287-2.572,7.52-4.427C90.259,144.519,90.958,144.291,91.791,144.291z"/>
	<path fill="#333333" d="M164.181,126.3c0,8.778-3.103,16.271-9.308,22.476c-6.206,6.206-13.697,9.308-22.475,9.308
		c-8.779,0-16.271-3.102-22.476-9.308c-6.206-6.205-9.308-13.697-9.308-22.476c0-8.777,3.102-16.27,9.308-22.476
		c6.205-6.204,13.697-9.308,22.476-9.308c8.777,0,16.269,3.104,22.475,9.308C161.078,110.03,164.181,117.522,164.181,126.3z
		 M132.398,101.555c-6.812,0-12.639,2.422-17.481,7.265c-4.844,4.844-7.265,10.67-7.265,17.48s2.421,12.638,7.265,17.48
		c4.843,4.844,10.67,7.265,17.481,7.265c6.81,0,12.637-2.421,17.48-7.265c4.805-4.805,7.208-10.632,7.208-17.48
		c0-6.848-2.403-12.675-7.208-17.48C145.035,103.977,139.208,101.555,132.398,101.555z"/>
	<path fill="#333333" d="M173.537,98.035c0-0.983,0.34-1.815,1.021-2.497c0.681-0.681,1.513-1.021,2.497-1.021
		c0.983,0,1.816,0.341,2.497,1.021c0.682,0.682,1.021,1.514,1.021,2.497v8.003c7.681-7.681,15.929-11.521,24.746-11.521
		c4.729,0,8.777,0.738,12.146,2.214c0.604,0.227,1.153,0.587,1.646,1.078c0.644,0.644,0.965,1.476,0.965,2.497
		c0,0.984-0.34,1.816-1.021,2.497c-0.681,0.682-1.514,1.021-2.497,1.021c-0.605,0-1.135-0.113-1.589-0.34
		c-2.649-1.286-5.865-1.93-9.648-1.93c-6.811,0-12.638,2.422-17.481,7.265c-4.844,4.806-7.265,10.633-7.265,17.48v28.265
		c0,0.984-0.34,1.815-1.021,2.497c-0.681,0.681-1.514,1.021-2.497,1.021c-0.984,0-1.816-0.341-2.497-1.021
		c-0.682-0.682-1.021-1.513-1.021-2.497V98.035z"/>
	<path fill="#333333" d="M277.978,146.562c-7.644,7.682-15.873,11.521-24.689,11.521c-8.778,0-16.27-3.102-22.475-9.308
		c-6.206-6.205-9.309-13.697-9.309-22.476c0-8.777,3.103-16.27,9.309-22.476c6.205-6.204,13.696-9.308,22.475-9.308
		s16.27,3.104,22.476,9.308c6.205,6.206,9.308,13.698,9.308,22.476v28.265c0,0.984-0.34,1.815-1.021,2.497
		c-0.681,0.681-1.514,1.021-2.497,1.021c-0.984,0-1.826-0.341-2.525-1.021c-0.701-0.682-1.05-1.513-1.05-2.497V146.562z
		 M253.288,101.555c-6.811,0-12.638,2.422-17.48,7.265c-4.844,4.844-7.265,10.67-7.265,17.48s2.421,12.638,7.265,17.48
		c4.843,4.844,10.67,7.265,17.48,7.265s12.638-2.421,17.481-7.265c4.805-4.805,7.208-10.632,7.208-17.48
		c0-6.848-2.403-12.675-7.208-17.48C265.926,103.977,260.099,101.555,253.288,101.555z"/>
	<path fill="#333333" d="M296.072,70.679c0-0.983,0.341-1.816,1.021-2.497c0.682-0.681,1.514-1.021,2.498-1.021
		c0.983,0,1.824,0.34,2.525,1.021c0.699,0.681,1.05,1.514,1.05,2.497v80.366h5.846c0.983,0,1.825,0.341,2.525,1.022
		c0.7,0.681,1.05,1.514,1.05,2.497c0,0.984-0.35,1.815-1.05,2.497c-0.7,0.681-1.542,1.021-2.525,1.021h-9.421
		c-0.984,0-1.816-0.341-2.498-1.021c-0.681-0.682-1.021-1.513-1.021-2.497V70.679z"/>
	<path fill="#333333" d="M333.396,152.181c0,1.665-0.567,3.064-1.702,4.199c-1.099,1.136-2.479,1.703-4.144,1.703
		c-1.665,0-3.064-0.567-4.2-1.703c-1.135-1.135-1.702-2.534-1.702-4.199s0.567-3.046,1.702-4.144c1.136-1.135,2.535-1.702,4.2-1.702
		c1.664,0,3.045,0.567,4.144,1.702C332.828,149.135,333.396,150.516,333.396,152.181z"/>
	<path fill="#333333" d="M354.401,79.193c0,1.325-0.454,2.44-1.362,3.349c-0.908,0.908-2.024,1.362-3.349,1.362
		c-1.286,0-2.394-0.454-3.32-1.362c-0.927-0.908-1.39-2.024-1.39-3.349c0-1.286,0.463-2.393,1.39-3.32
		c0.927-0.927,2.034-1.391,3.32-1.391c1.324,0,2.44,0.464,3.349,1.391C353.947,76.8,354.401,77.907,354.401,79.193z M346.172,98.035
		c0-0.983,0.341-1.815,1.021-2.497c0.682-0.681,1.513-1.021,2.497-1.021c0.983,0,1.825,0.341,2.526,1.021
		c0.699,0.682,1.05,1.514,1.05,2.497v56.529c0,0.984-0.351,1.815-1.05,2.497c-0.701,0.681-1.543,1.021-2.526,1.021
		c-0.984,0-1.815-0.341-2.497-1.021c-0.681-0.682-1.021-1.513-1.021-2.497V98.035z"/>
	<path fill="#333333" d="M374.269,154.564c0,0.984-0.341,1.815-1.022,2.497c-0.681,0.681-1.514,1.021-2.497,1.021
		c-0.984,0-1.826-0.341-2.525-1.021c-0.7-0.682-1.05-1.513-1.05-2.497V98.035c0-0.983,0.35-1.815,1.05-2.497
		c0.699-0.681,1.541-1.021,2.525-1.021c0.983,0,1.816,0.341,2.497,1.021c0.682,0.682,1.022,1.514,1.022,2.497v3.803
		c5.75-4.881,11.635-7.321,17.65-7.321c6.811,0,12.637,2.422,17.48,7.265c1.173,1.212,2.402,2.688,3.689,4.427
		c1.286-1.739,2.534-3.215,3.746-4.427c4.843-4.843,10.67-7.265,17.48-7.265s12.637,2.422,17.48,7.265
		c4.805,4.806,7.208,10.633,7.208,17.48v35.303c0,0.984-0.34,1.815-1.021,2.497c-0.681,0.681-1.514,1.021-2.497,1.021
		c-0.984,0-1.816-0.341-2.497-1.021c-0.682-0.682-1.021-1.513-1.021-2.497v-35.303c0-4.881-1.741-9.042-5.222-12.485
		c-3.481-3.481-7.625-5.222-12.43-5.222c-4.844,0-9.006,1.74-12.486,5.222c-3.443,3.443-5.165,7.604-5.165,12.485v35.303
		c0,0.984-0.35,1.815-1.05,2.497c-0.7,0.681-1.542,1.021-2.525,1.021c-0.984,0-1.816-0.341-2.497-1.021
		c-0.682-0.682-1.021-1.513-1.021-2.497v-35.303c0-4.881-1.723-9.042-5.165-12.485c-3.481-3.481-7.644-5.222-12.486-5.222
		c-4.844,0-9.005,1.74-12.486,5.222c-3.443,3.443-5.164,7.604-5.164,12.485V154.564z"/>
</g>
</svg>
